<svg width="263" height="89" viewBox="0 0 263 89" fill="none" xmlns="http://www.w3.org/2000/svg">
  <path d="M168.9 14.73L158 6.81C157.791 6.65636 157.544 6.56366 157.286 6.54223C157.028 6.52079 156.768 6.57147 156.537 6.68861C156.306 6.80575 156.112 6.98476 155.976 7.2057C155.841 7.42664 155.77 7.68084 155.77 7.94V23.79C155.77 24.0492 155.841 24.3034 155.976 24.5243C156.112 24.7452 156.306 24.9243 156.537 25.0414C156.768 25.1585 157.028 25.2092 157.286 25.1878C157.544 25.1663 157.791 25.0736 158 24.92L168.9 17C169.08 16.8703 169.226 16.6997 169.327 16.5024C169.428 16.3051 169.48 16.0866 169.48 15.865C169.48 15.6434 169.428 15.4249 169.327 15.2276C169.226 15.0303 169.08 14.8597 168.9 14.73Z" fill="white"/>
  <path d="M168.9 43.24L158 35.31C157.79 35.1601 157.544 35.0706 157.287 35.051C157.03 35.0315 156.772 35.0828 156.543 35.1992C156.313 35.3157 156.119 35.4929 155.983 35.7117C155.847 35.9304 155.773 36.1823 155.77 36.44V52.3C155.77 52.5592 155.841 52.8134 155.976 53.0343C156.112 53.2552 156.306 53.4342 156.537 53.5514C156.768 53.6685 157.028 53.7192 157.286 53.6978C157.544 53.6763 157.791 53.5836 158 53.43L168.9 45.5C169.08 45.3713 169.226 45.2017 169.327 45.0052C169.428 44.8087 169.481 44.5909 169.481 44.37C169.481 44.1491 169.428 43.9313 169.327 43.7348C169.226 43.5383 169.08 43.3687 168.9 43.24Z" fill="#06B6D4"/>
  <path d="M168.86 71.74L158 63.82C157.787 63.6557 157.532 63.5557 157.264 63.5318C156.996 63.5079 156.727 63.5611 156.488 63.6852C156.25 63.8092 156.051 63.9989 155.917 64.2319C155.783 64.4648 155.718 64.7313 155.73 65V80.8C155.726 81.0653 155.796 81.3264 155.934 81.5533C156.071 81.7802 156.27 81.9637 156.507 82.0828C156.744 82.2019 157.01 82.2516 157.274 82.2264C157.538 82.2011 157.79 82.1018 158 81.94L168.86 74C169.038 73.87 169.182 73.6999 169.282 73.5036C169.382 73.3073 169.433 73.0902 169.433 72.87C169.433 72.6498 169.382 72.4327 169.282 72.2364C169.182 72.04 169.038 71.87 168.86 71.74Z" fill="#06B6D4"/>
  <path d="M26.29 78.25C15.87 78.25 13.57 71.85 13.57 64.25V45.9H10.37C6.58999 45.9 5.92999 43.28 5.92999 41.96C5.92999 40.64 6.58999 38 10.37 38H13.57V31.21C13.57 26.7 16.77 25.87 18.41 25.87C20.05 25.87 23.25 26.7 23.25 31.21V38H29.41C33.19 38 33.84 40.63 33.84 41.94C33.84 43.25 33.19 45.88 29.41 45.88H23.25V64.21C23.25 68.07 24.57 70.12 27.03 70.12C27.5519 70.1111 28.0729 70.0711 28.59 70C28.97 69.9365 29.3548 69.9064 29.74 69.91C30.2354 69.8864 30.7303 69.9654 31.1938 70.142C31.6572 70.3187 32.0791 70.5892 32.4331 70.9366C32.7871 71.284 33.0655 71.7008 33.2508 72.1608C33.4361 72.6209 33.5243 73.1142 33.51 73.61C33.5009 74.3765 33.2718 75.1243 32.8498 75.7643C32.4279 76.4043 31.8309 76.9096 31.13 77.22C29.6158 77.9265 27.9606 78.2787 26.29 78.25Z" fill="white"/>
  <path d="M74.78 73C74.78 77.44 71.57 78.18 70.1 78.18C68.63 78.18 65.42 77.44 65.42 73V71.11H65.25C64.1252 73.3875 62.3767 75.2987 60.2081 76.6211C58.0394 77.9436 55.5397 78.6229 53 78.58C42.74 78.58 38.47 70.7 38.47 62.65V42.79C38.47 38.11 41.76 37.29 43.4 37.29C45.04 37.29 48.32 38.11 48.32 42.79V59.86C48.32 64.54 49.39 70.37 55.71 70.37C62.03 70.37 64.91 64.95 64.91 59.7V42.79C64.91 38.11 68.19 37.29 69.83 37.29C71.47 37.29 74.76 38.11 74.76 42.79L74.78 73Z" fill="white"/>
  <path d="M84.35 78.17C82.71 78.17 79.43 77.35 79.43 72.67V42.54C79.43 38.11 82.63 37.29 84.1 37.29C85.57 37.29 88.86 38.11 88.86 42.54V44.59H89C90.56 40.32 94.5 36.87 99.26 36.87C102.26 36.87 104.35 38.35 104.35 41.23C104.35 43.77 102.79 45.99 99.01 45.99C92.78 45.99 89.25 50.67 89.25 57.23V72.67C89.28 77.35 86 78.17 84.35 78.17Z" fill="white"/>
  <path d="M108.35 20.13C108.35 15.45 111.63 14.63 113.28 14.63C114.93 14.63 118.2 15.45 118.2 20.13V43H118.45C120.014 41.009 122.025 39.414 124.32 38.3439C126.615 37.2738 129.129 36.7586 131.66 36.84C142.91 36.84 150.79 45.84 150.79 57.53C150.79 69.02 143.4 78.53 131.42 78.53C125.92 78.53 120.58 75.98 117.87 71.47H117.71V73C117.71 77.44 114.51 78.18 113.03 78.18C111.55 78.18 108.35 77.44 108.35 73V20.13ZM129.45 44.92C122.22 44.92 117.87 51.57 117.87 57.73C117.87 63.89 122.22 70.37 129.45 70.37C137.08 70.37 140.78 63.72 140.78 57.56C140.78 51.4 137.08 44.92 129.45 44.92Z" fill="white"/>
  <path d="M174.89 42.46C174.89 38.02 178.09 37.29 179.57 37.29C181.05 37.29 184.25 38.02 184.25 42.46V44.34H184.41C185.538 42.0671 187.286 40.1596 189.452 38.8378C191.617 37.516 194.113 36.8338 196.65 36.87C206.91 36.87 211.18 44.76 211.18 52.8V72.67C211.18 77.35 207.89 78.17 206.25 78.17C204.61 78.17 201.33 77.35 201.33 72.67V55.59C201.33 50.91 200.26 45.08 193.94 45.08C187.62 45.08 184.74 50.5 184.74 55.76V72.67C184.74 77.35 181.46 78.17 179.82 78.17C178.18 78.17 174.89 77.35 174.89 72.67V42.46Z" fill="white"/>
  <path d="M225.92 60.85C226.33 66.43 231.42 70.53 237.17 70.53C240.492 70.6178 243.718 69.4133 246.17 67.17C247.063 66.2803 248.27 65.7774 249.53 65.77C250.053 65.7488 250.575 65.8363 251.062 66.0268C251.55 66.2173 251.993 66.5068 252.363 66.877C252.733 67.2471 253.023 67.69 253.213 68.1776C253.404 68.6652 253.491 69.1869 253.47 69.71C253.447 70.3781 253.289 71.0348 253.008 71.6411C252.726 72.2475 252.325 72.7911 251.83 73.24C247.97 76.93 243.54 78.58 237.22 78.58C225.07 78.58 216.04 70.78 216.04 57.97C216.04 45.16 225.04 36.87 236.89 36.87C246.42 36.87 254.13 42.29 255.69 53.87C255.77 54.69 255.85 55.26 255.85 55.92C255.85 59.37 253.97 60.85 250.68 60.85H225.92ZM246.12 53.79C246.12 48.7 243.24 44.26 236.84 44.26C231.01 44.26 226.33 48.26 225.92 53.79H246.12Z" fill="white"/>
</svg>

